<svg width="24" height="24" viewBox="0 0 24 24" fill="none" xmlns="http://www.w3.org/2000/svg">
<path fill-rule="evenodd" clip-rule="evenodd" d="M5 1C3.89543 1 3 1.89543 3 3V21C3 22.1046 3.89544 23 5 23H19C20.1046 23 21 22.1046 21 21V3C21 1.89544 20.1046 1 19 1H5ZM7.5 15C7.5 14.4477 7.94772 14 8.5 14H15.5C16.0523 14 16.5 14.4477 16.5 15C16.5 15.5523 16.0523 16 15.5 16H8.5C7.94772 16 7.5 15.5523 7.5 15ZM8.5 17C7.94772 17 7.5 17.4477 7.5 18C7.5 18.5523 7.94772 19 8.5 19H12C12.5523 19 13 18.5523 13 18C13 17.4477 12.5523 17 12 17H8.5ZM8.5 8.5C8.5 7.94772 8.94772 7.5 9.5 7.5H11V6C11 5.44772 11.4477 5 12 5C12.5523 5 13 5.44772 13 6V7.5H14.5C15.0523 7.5 15.5 7.94772 15.5 8.5C15.5 9.05229 15.0523 9.5 14.5 9.5H13V11C13 11.5523 12.5523 12 12 12C11.4477 12 11 11.5523 11 11V9.5H9.5C8.94772 9.5 8.5 9.05229 8.5 8.5Z" fill="black" fill-opacity="0.65"/>
</svg>
